<?xml version="1.0" encoding="UTF-8" standalone="no"?>
<!-- Created with Inkscape (http://www.inkscape.org/) -->

<svg
   xmlns:dc="http://purl.org/dc/elements/1.1/"
   xmlns:cc="http://creativecommons.org/ns#"
   xmlns:rdf="http://www.w3.org/1999/02/22-rdf-syntax-ns#"
   xmlns:svg="http://www.w3.org/2000/svg"
   xmlns="http://www.w3.org/2000/svg"
   xmlns:sodipodi="http://sodipodi.sourceforge.net/DTD/sodipodi-0.dtd"
   xmlns:inkscape="http://www.inkscape.org/namespaces/inkscape"
   id="svg3315"
   version="1.1"
   inkscape:version="0.48.4 r9939"
   width="1350"
   height="816.60944"
   xml:space="preserve"
   sodipodi:docname="Earth_color_probs.pdf.2015_12_01_11_10_52.0.svg"><metadata
     id="metadata3321"><rdf:RDF><cc:Work
         rdf:about=""><dc:format>image/svg+xml</dc:format><dc:type
           rdf:resource="http://purl.org/dc/dcmitype/StillImage" /><dc:title></dc:title></cc:Work></rdf:RDF></metadata><defs
     id="defs3319"><clipPath
       clipPathUnits="userSpaceOnUse"
       id="clipPath3333"><path
         d="m 135,72 837,0 0,446.4 -837,0 0,-446.4 z"
         id="path3335"
         inkscape:connector-curvature="0" /></clipPath><clipPath
       clipPathUnits="userSpaceOnUse"
       id="clipPath3353"><path
         d="m 135,72 837,0 0,446.4 -837,0 0,-446.4 z"
         id="path3355"
         inkscape:connector-curvature="0" /></clipPath><clipPath
       clipPathUnits="userSpaceOnUse"
       id="clipPath3373"><path
         d="m 135,72 837,0 0,446.4 -837,0 0,-446.4 z"
         id="path3375"
         inkscape:connector-curvature="0" /></clipPath><clipPath
       clipPathUnits="userSpaceOnUse"
       id="clipPath3393"><path
         d="m 135,72 837,0 0,446.4 -837,0 0,-446.4 z"
         id="path3395"
         inkscape:connector-curvature="0" /></clipPath><clipPath
       clipPathUnits="userSpaceOnUse"
       id="clipPath3413"><path
         d="m 135,72 837,0 0,446.4 -837,0 0,-446.4 z"
         id="path3415"
         inkscape:connector-curvature="0" /></clipPath><clipPath
       clipPathUnits="userSpaceOnUse"
       id="clipPath3437"><path
         d="m 135,72 837,0 0,446.4 -837,0 0,-446.4 z"
         id="path3439"
         inkscape:connector-curvature="0" /></clipPath><clipPath
       clipPathUnits="userSpaceOnUse"
       id="clipPath3457"><path
         d="m 135,72 837,0 0,446.4 -837,0 0,-446.4 z"
         id="path3459"
         inkscape:connector-curvature="0" /></clipPath><clipPath
       clipPathUnits="userSpaceOnUse"
       id="clipPath3477"><path
         d="m 135,72 837,0 0,446.4 -837,0 0,-446.4 z"
         id="path3479"
         inkscape:connector-curvature="0" /></clipPath><clipPath
       clipPathUnits="userSpaceOnUse"
       id="clipPath3497"><path
         d="m 135,72 837,0 0,446.4 -837,0 0,-446.4 z"
         id="path3499"
         inkscape:connector-curvature="0" /></clipPath><clipPath
       clipPathUnits="userSpaceOnUse"
       id="clipPath3517"><path
         d="m 135,72 837,0 0,446.4 -837,0 0,-446.4 z"
         id="path3519"
         inkscape:connector-curvature="0" /></clipPath><clipPath
       clipPathUnits="userSpaceOnUse"
       id="clipPath3537"><path
         d="m 135,72 837,0 0,446.4 -837,0 0,-446.4 z"
         id="path3539"
         inkscape:connector-curvature="0" /></clipPath><clipPath
       clipPathUnits="userSpaceOnUse"
       id="clipPath3561"><path
         d="m 135,72 837,0 0,446.4 -837,0 0,-446.4 z"
         id="path3563"
         inkscape:connector-curvature="0" /></clipPath><clipPath
       clipPathUnits="userSpaceOnUse"
       id="clipPath3571"><path
         d="m 135,72 837,0 0,446.4 -837,0 0,-446.4 z"
         id="path3573"
         inkscape:connector-curvature="0" /></clipPath><clipPath
       clipPathUnits="userSpaceOnUse"
       id="clipPath3581"><path
         d="m 135,72 837,0 0,446.4 -837,0 0,-446.4 z"
         id="path3583"
         inkscape:connector-curvature="0" /></clipPath></defs><sodipodi:namedview
     pagecolor="#ffffff"
     bordercolor="#666666"
     borderopacity="1"
     objecttolerance="10"
     gridtolerance="10"
     guidetolerance="10"
     inkscape:pageopacity="0"
     inkscape:pageshadow="2"
     inkscape:window-width="1920"
     inkscape:window-height="1175"
     id="namedview3317"
     showgrid="false"
     showguides="true"
     inkscape:guide-bbox="true"
     fit-margin-top="0"
     fit-margin-left="0"
     fit-margin-right="0"
     fit-margin-bottom="0"
     inkscape:zoom="0.9837037"
     inkscape:cx="624.96851"
     inkscape:cy="226.86745"
     inkscape:window-x="1920"
     inkscape:window-y="1200"
     inkscape:window-maximized="1"
     inkscape:current-layer="g3323"><sodipodi:guide
       orientation="1,0"
       position="-167.91656,1016.7002"
       id="guide3623" /></sodipodi:namedview><g
     id="g3323"
     inkscape:groupmode="layer"
     inkscape:label="Earth_color_probs"
     transform="matrix(1.25,0,0,-1.25,0,720)"><path
       d="m 0,0 1080,0 0,576 L 0,576 0,0 z"
       style="fill:#ffffff;fill-opacity:1;fill-rule:nonzero;stroke:none"
       id="path3325"
       inkscape:connector-curvature="0" /><path
       d="m 135,72 837,0 0,446.4 -837,0 0,-446.4 z"
       style="fill:#e5e5e5;fill-opacity:1;fill-rule:nonzero;stroke:none"
       id="path3327"
       inkscape:connector-curvature="0" /><g
       id="g3329"><g
         id="g3331"
         clip-path="url(#clipPath3333)"><path
           d="m 135,72 0,446.4"
           style="fill:none;stroke:#ffffff;stroke-width:0.5;stroke-linecap:square;stroke-linejoin:round;stroke-miterlimit:10;stroke-opacity:1;stroke-dasharray:none"
           id="path3337"
           inkscape:connector-curvature="0" /></g></g><g
       id="g3339"><path
         d="m 135,72 0,-4"
         style="fill:#555555;fill-opacity:1;fill-rule:nonzero;stroke:#555555;stroke-width:0.5;stroke-linecap:butt;stroke-linejoin:round;stroke-miterlimit:10;stroke-opacity:1;stroke-dasharray:none"
         id="path3341"
         inkscape:connector-curvature="0" /><path
         d="m 135,518.4 0,4"
         style="fill:#555555;fill-opacity:1;fill-rule:nonzero;stroke:#555555;stroke-width:0.5;stroke-linecap:butt;stroke-linejoin:round;stroke-miterlimit:10;stroke-opacity:1;stroke-dasharray:none"
         id="path3343"
         inkscape:connector-curvature="0" /><text
         transform="matrix(1,0,0,-1,127.44531,56.84375)"
         id="text3345"><tspan
           style="font-size:10px;font-variant:normal;font-weight:normal;writing-mode:lr-tb;fill:#555555;fill-opacity:1;fill-rule:nonzero;stroke:none;font-family:ArialMT;-inkscape-font-specification:ArialMT"
           x="0 5.5599999 11.12"
           y="0"
           sodipodi:role="line"
           id="tspan3347">100</tspan></text>
</g><g
       id="g3349"><g
         id="g3351"
         clip-path="url(#clipPath3353)"><path
           d="m 344.25,72 0,446.4"
           style="fill:none;stroke:#ffffff;stroke-width:0.5;stroke-linecap:square;stroke-linejoin:round;stroke-miterlimit:10;stroke-opacity:1;stroke-dasharray:none"
           id="path3357"
           inkscape:connector-curvature="0" /></g></g><g
       id="g3359"><path
         d="m 344.25,72 0,-4"
         style="fill:#555555;fill-opacity:1;fill-rule:nonzero;stroke:#555555;stroke-width:0.5;stroke-linecap:butt;stroke-linejoin:round;stroke-miterlimit:10;stroke-opacity:1;stroke-dasharray:none"
         id="path3361"
         inkscape:connector-curvature="0" /><path
         d="m 344.25,518.4 0,4"
         style="fill:#555555;fill-opacity:1;fill-rule:nonzero;stroke:#555555;stroke-width:0.5;stroke-linecap:butt;stroke-linejoin:round;stroke-miterlimit:10;stroke-opacity:1;stroke-dasharray:none"
         id="path3363"
         inkscape:connector-curvature="0" /><text
         transform="matrix(1,0,0,-1,336.69531,56.84375)"
         id="text3365"><tspan
           style="font-size:10px;font-variant:normal;font-weight:normal;writing-mode:lr-tb;fill:#555555;fill-opacity:1;fill-rule:nonzero;stroke:none;font-family:ArialMT;-inkscape-font-specification:ArialMT"
           x="0 5.5599999 11.12"
           y="0"
           sodipodi:role="line"
           id="tspan3367">150</tspan></text>
</g><g
       id="g3369"><g
         id="g3371"
         clip-path="url(#clipPath3373)"><path
           d="m 553.5,72 0,446.4"
           style="fill:none;stroke:#ffffff;stroke-width:0.5;stroke-linecap:square;stroke-linejoin:round;stroke-miterlimit:10;stroke-opacity:1;stroke-dasharray:none"
           id="path3377"
           inkscape:connector-curvature="0" /></g></g><g
       id="g3379"><path
         d="m 553.5,72 0,-4"
         style="fill:#555555;fill-opacity:1;fill-rule:nonzero;stroke:#555555;stroke-width:0.5;stroke-linecap:butt;stroke-linejoin:round;stroke-miterlimit:10;stroke-opacity:1;stroke-dasharray:none"
         id="path3381"
         inkscape:connector-curvature="0" /><path
         d="m 553.5,518.4 0,4"
         style="fill:#555555;fill-opacity:1;fill-rule:nonzero;stroke:#555555;stroke-width:0.5;stroke-linecap:butt;stroke-linejoin:round;stroke-miterlimit:10;stroke-opacity:1;stroke-dasharray:none"
         id="path3383"
         inkscape:connector-curvature="0" /><text
         transform="matrix(1,0,0,-1,545.54687,56.84375)"
         id="text3385"><tspan
           style="font-size:10px;font-variant:normal;font-weight:normal;writing-mode:lr-tb;fill:#555555;fill-opacity:1;fill-rule:nonzero;stroke:none;font-family:ArialMT;-inkscape-font-specification:ArialMT"
           x="0 5.5599999 11.12"
           y="0"
           sodipodi:role="line"
           id="tspan3387">200</tspan></text>
</g><g
       id="g3389"><g
         id="g3391"
         clip-path="url(#clipPath3393)"><path
           d="m 762.75,72 0,446.4"
           style="fill:none;stroke:#ffffff;stroke-width:0.5;stroke-linecap:square;stroke-linejoin:round;stroke-miterlimit:10;stroke-opacity:1;stroke-dasharray:none"
           id="path3397"
           inkscape:connector-curvature="0" /></g></g><g
       id="g3399"><path
         d="m 762.75,72 0,-4"
         style="fill:#555555;fill-opacity:1;fill-rule:nonzero;stroke:#555555;stroke-width:0.5;stroke-linecap:butt;stroke-linejoin:round;stroke-miterlimit:10;stroke-opacity:1;stroke-dasharray:none"
         id="path3401"
         inkscape:connector-curvature="0" /><path
         d="m 762.75,518.4 0,4"
         style="fill:#555555;fill-opacity:1;fill-rule:nonzero;stroke:#555555;stroke-width:0.5;stroke-linecap:butt;stroke-linejoin:round;stroke-miterlimit:10;stroke-opacity:1;stroke-dasharray:none"
         id="path3403"
         inkscape:connector-curvature="0" /><text
         transform="matrix(1,0,0,-1,754.79688,56.84375)"
         id="text3405"><tspan
           style="font-size:10px;font-variant:normal;font-weight:normal;writing-mode:lr-tb;fill:#555555;fill-opacity:1;fill-rule:nonzero;stroke:none;font-family:ArialMT;-inkscape-font-specification:ArialMT"
           x="0 5.5599999 11.12"
           y="0"
           sodipodi:role="line"
           id="tspan3407">250</tspan></text>
</g><g
       id="g3409"><g
         id="g3411"
         clip-path="url(#clipPath3413)"><path
           d="m 972,72 0,446.4"
           style="fill:none;stroke:#ffffff;stroke-width:0.5;stroke-linecap:square;stroke-linejoin:round;stroke-miterlimit:10;stroke-opacity:1;stroke-dasharray:none"
           id="path3417"
           inkscape:connector-curvature="0" /></g></g><g
       id="g3419"><path
         d="m 972,72 0,-4"
         style="fill:#555555;fill-opacity:1;fill-rule:nonzero;stroke:#555555;stroke-width:0.5;stroke-linecap:butt;stroke-linejoin:round;stroke-miterlimit:10;stroke-opacity:1;stroke-dasharray:none"
         id="path3421"
         inkscape:connector-curvature="0" /><path
         d="m 972,518.4 0,4"
         style="fill:#555555;fill-opacity:1;fill-rule:nonzero;stroke:#555555;stroke-width:0.5;stroke-linecap:butt;stroke-linejoin:round;stroke-miterlimit:10;stroke-opacity:1;stroke-dasharray:none"
         id="path3423"
         inkscape:connector-curvature="0" /><text
         transform="matrix(1,0,0,-1,964.10938,56.84375)"
         id="text3425"><tspan
           style="font-size:10px;font-variant:normal;font-weight:normal;writing-mode:lr-tb;fill:#555555;fill-opacity:1;fill-rule:nonzero;stroke:none;font-family:ArialMT;-inkscape-font-specification:ArialMT"
           x="0 5.5599999 11.12"
           y="0"
           sodipodi:role="line"
           id="tspan3427">300</tspan></text>
<text
         transform="matrix(1,0,0,-1,523.54687,41.265625)"
         id="text3429"><tspan
           style="font-size:12px;font-variant:normal;font-weight:normal;writing-mode:lr-tb;fill:#555555;fill-opacity:1;fill-rule:nonzero;stroke:none;font-family:ArialMT;-inkscape-font-specification:ArialMT"
           x="0 8.6639996 15.336 18 24.672001 31.344 34.68 38.015999 41.352001 47.352001 57.348"
           y="0"
           sodipodi:role="line"
           id="tspan3431">Height [km]</tspan></text>
</g><g
       id="g3433"><g
         id="g3435"
         clip-path="url(#clipPath3437)"><path
           d="m 135,72 837,0"
           style="fill:none;stroke:#ffffff;stroke-width:0.5;stroke-linecap:square;stroke-linejoin:round;stroke-miterlimit:10;stroke-opacity:1;stroke-dasharray:none"
           id="path3441"
           inkscape:connector-curvature="0" /></g></g><g
       id="g3443"><path
         d="m 135,72 -4,0"
         style="fill:#555555;fill-opacity:1;fill-rule:nonzero;stroke:#555555;stroke-width:0.5;stroke-linecap:butt;stroke-linejoin:round;stroke-miterlimit:10;stroke-opacity:1;stroke-dasharray:none"
         id="path3445"
         inkscape:connector-curvature="0" /><path
         d="m 972,72 4,0"
         style="fill:#555555;fill-opacity:1;fill-rule:nonzero;stroke:#555555;stroke-width:0.5;stroke-linecap:butt;stroke-linejoin:round;stroke-miterlimit:10;stroke-opacity:1;stroke-dasharray:none"
         id="path3447"
         inkscape:connector-curvature="0" /><text
         transform="matrix(1,0,0,-1,114,69.414063)"
         id="text3449"><tspan
           style="font-size:10px;font-variant:normal;font-weight:normal;writing-mode:lr-tb;fill:#555555;fill-opacity:1;fill-rule:nonzero;stroke:none;font-family:ArialMT;-inkscape-font-specification:ArialMT"
           x="0 5.5599999 8.3400002"
           y="0"
           sodipodi:role="line"
           id="tspan3451">0.0</tspan></text>
</g><g
       id="g3453"><g
         id="g3455"
         clip-path="url(#clipPath3457)"><path
           d="m 135,161.28 837,0"
           style="fill:none;stroke:#ffffff;stroke-width:0.5;stroke-linecap:square;stroke-linejoin:round;stroke-miterlimit:10;stroke-opacity:1;stroke-dasharray:none"
           id="path3461"
           inkscape:connector-curvature="0" /></g></g><g
       id="g3463"><path
         d="m 135,161.28 -4,0"
         style="fill:#555555;fill-opacity:1;fill-rule:nonzero;stroke:#555555;stroke-width:0.5;stroke-linecap:butt;stroke-linejoin:round;stroke-miterlimit:10;stroke-opacity:1;stroke-dasharray:none"
         id="path3465"
         inkscape:connector-curvature="0" /><path
         d="m 972,161.28 4,0"
         style="fill:#555555;fill-opacity:1;fill-rule:nonzero;stroke:#555555;stroke-width:0.5;stroke-linecap:butt;stroke-linejoin:round;stroke-miterlimit:10;stroke-opacity:1;stroke-dasharray:none"
         id="path3467"
         inkscape:connector-curvature="0" /><text
         transform="matrix(1,0,0,-1,114.04688,158.69406)"
         id="text3469"><tspan
           style="font-size:10px;font-variant:normal;font-weight:normal;writing-mode:lr-tb;fill:#555555;fill-opacity:1;fill-rule:nonzero;stroke:none;font-family:ArialMT;-inkscape-font-specification:ArialMT"
           x="0 5.5599999 8.3400002"
           y="0"
           sodipodi:role="line"
           id="tspan3471">0.2</tspan></text>
</g><g
       id="g3473"><g
         id="g3475"
         clip-path="url(#clipPath3477)"><path
           d="m 135,250.56 837,0"
           style="fill:none;stroke:#ffffff;stroke-width:0.5;stroke-linecap:square;stroke-linejoin:round;stroke-miterlimit:10;stroke-opacity:1;stroke-dasharray:none"
           id="path3481"
           inkscape:connector-curvature="0" /></g></g><g
       id="g3483"><path
         d="m 135,250.56 -4,0"
         style="fill:#555555;fill-opacity:1;fill-rule:nonzero;stroke:#555555;stroke-width:0.5;stroke-linecap:butt;stroke-linejoin:round;stroke-miterlimit:10;stroke-opacity:1;stroke-dasharray:none"
         id="path3485"
         inkscape:connector-curvature="0" /><path
         d="m 972,250.56 4,0"
         style="fill:#555555;fill-opacity:1;fill-rule:nonzero;stroke:#555555;stroke-width:0.5;stroke-linecap:butt;stroke-linejoin:round;stroke-miterlimit:10;stroke-opacity:1;stroke-dasharray:none"
         id="path3487"
         inkscape:connector-curvature="0" /><text
         transform="matrix(1,0,0,-1,114,247.97406)"
         id="text3489"><tspan
           style="font-size:10px;font-variant:normal;font-weight:normal;writing-mode:lr-tb;fill:#555555;fill-opacity:1;fill-rule:nonzero;stroke:none;font-family:ArialMT;-inkscape-font-specification:ArialMT"
           x="0 5.5599999 8.3400002"
           y="0"
           sodipodi:role="line"
           id="tspan3491">0.4</tspan></text>
</g><g
       id="g3493"><g
         id="g3495"
         clip-path="url(#clipPath3497)"><path
           d="m 135,339.84 837,0"
           style="fill:none;stroke:#ffffff;stroke-width:0.5;stroke-linecap:square;stroke-linejoin:round;stroke-miterlimit:10;stroke-opacity:1;stroke-dasharray:none"
           id="path3501"
           inkscape:connector-curvature="0" /></g></g><g
       id="g3503"><path
         d="m 135,339.84 -4,0"
         style="fill:#555555;fill-opacity:1;fill-rule:nonzero;stroke:#555555;stroke-width:0.5;stroke-linecap:butt;stroke-linejoin:round;stroke-miterlimit:10;stroke-opacity:1;stroke-dasharray:none"
         id="path3505"
         inkscape:connector-curvature="0" /><path
         d="m 972,339.84 4,0"
         style="fill:#555555;fill-opacity:1;fill-rule:nonzero;stroke:#555555;stroke-width:0.5;stroke-linecap:butt;stroke-linejoin:round;stroke-miterlimit:10;stroke-opacity:1;stroke-dasharray:none"
         id="path3507"
         inkscape:connector-curvature="0" /><text
         transform="matrix(1,0,0,-1,113.96875,337.25406)"
         id="text3509"><tspan
           style="font-size:10px;font-variant:normal;font-weight:normal;writing-mode:lr-tb;fill:#555555;fill-opacity:1;fill-rule:nonzero;stroke:none;font-family:ArialMT;-inkscape-font-specification:ArialMT"
           x="0 5.5599999 8.3400002"
           y="0"
           sodipodi:role="line"
           id="tspan3511">0.6</tspan></text>
</g><g
       id="g3513"><g
         id="g3515"
         clip-path="url(#clipPath3517)"><path
           d="m 135,429.12 837,0"
           style="fill:none;stroke:#ffffff;stroke-width:0.5;stroke-linecap:square;stroke-linejoin:round;stroke-miterlimit:10;stroke-opacity:1;stroke-dasharray:none"
           id="path3521"
           inkscape:connector-curvature="0" /></g></g><g
       id="g3523"><path
         d="m 135,429.12 -4,0"
         style="fill:#555555;fill-opacity:1;fill-rule:nonzero;stroke:#555555;stroke-width:0.5;stroke-linecap:butt;stroke-linejoin:round;stroke-miterlimit:10;stroke-opacity:1;stroke-dasharray:none"
         id="path3525"
         inkscape:connector-curvature="0" /><path
         d="m 972,429.12 4,0"
         style="fill:#555555;fill-opacity:1;fill-rule:nonzero;stroke:#555555;stroke-width:0.5;stroke-linecap:butt;stroke-linejoin:round;stroke-miterlimit:10;stroke-opacity:1;stroke-dasharray:none"
         id="path3527"
         inkscape:connector-curvature="0" /><text
         transform="matrix(1,0,0,-1,113.95313,426.53406)"
         id="text3529"><tspan
           style="font-size:10px;font-variant:normal;font-weight:normal;writing-mode:lr-tb;fill:#555555;fill-opacity:1;fill-rule:nonzero;stroke:none;font-family:ArialMT;-inkscape-font-specification:ArialMT"
           x="0 5.5599999 8.3400002"
           y="0"
           sodipodi:role="line"
           id="tspan3531">0.8</tspan></text>
</g><g
       id="g3533"><g
         id="g3535"
         clip-path="url(#clipPath3537)"><path
           d="m 135,518.4 837,0"
           style="fill:none;stroke:#ffffff;stroke-width:0.5;stroke-linecap:square;stroke-linejoin:round;stroke-miterlimit:10;stroke-opacity:1;stroke-dasharray:none"
           id="path3541"
           inkscape:connector-curvature="0" /></g></g><g
       id="g3543"><path
         d="m 135,518.4 -4,0"
         style="fill:#555555;fill-opacity:1;fill-rule:nonzero;stroke:#555555;stroke-width:0.5;stroke-linecap:butt;stroke-linejoin:round;stroke-miterlimit:10;stroke-opacity:1;stroke-dasharray:none"
         id="path3545"
         inkscape:connector-curvature="0" /><path
         d="m 972,518.4 4,0"
         style="fill:#555555;fill-opacity:1;fill-rule:nonzero;stroke:#555555;stroke-width:0.5;stroke-linecap:butt;stroke-linejoin:round;stroke-miterlimit:10;stroke-opacity:1;stroke-dasharray:none"
         id="path3547"
         inkscape:connector-curvature="0" /><text
         transform="matrix(1,0,0,-1,114.67187,515.81406)"
         id="text3549"><tspan
           style="font-size:10px;font-variant:normal;font-weight:normal;writing-mode:lr-tb;fill:#555555;fill-opacity:1;fill-rule:nonzero;stroke:none;font-family:ArialMT;-inkscape-font-specification:ArialMT"
           x="0 5.5599999 8.3400002"
           y="0"
           sodipodi:role="line"
           id="tspan3551">1.0</tspan></text>
<text
         transform="matrix(0,1,1,0,106.42188,212.91094)"
         id="text3553"><tspan
           style="font-size:12px;font-variant:normal;font-weight:normal;writing-mode:lr-tb;fill:#555555;fill-opacity:1;fill-rule:nonzero;stroke:none;font-family:ArialMT;-inkscape-font-specification:ArialMT"
           x="0 8.6639996 15.336 18 24.672001 28.007999 30.672001 36.672001 43.344002 46.68 53.352001 57.348 64.019997 70.692001 77.363998 84.036003 86.699997 89.363998 92.028 95.363998 101.364 104.7 111.372 114.708 118.044 124.716 134.71201 137.37601 143.37601 149.37601 152.03999 158.71201"
           y="0"
           sodipodi:role="line"
           id="tspan3555">Relative probability of emission</tspan></text>
</g><g
       id="g3557"><g
         id="g3559"
         clip-path="url(#clipPath3561)"><path
           d="m 135,68.358161 4.185,1.676535 4.185,1.488385 4.185,1.312016 4.185,1.147094 4.185,0.993277 4.185,0.850221 4.185,0.717582 4.185,0.595007 8.37,0.860805 8.37,0.482527 8.37,0.172141 8.37,-0.07594 8.37,-0.267204 12.555,-0.648444 25.11,-1.664559 16.74,-1.022448 12.555,-0.583339 12.555,-0.365612 12.555,-0.113009 12.555,0.158613 12.555,0.435473 12.555,0.705861 12.555,0.960116 12.555,1.190576 12.555,1.391492 16.74,2.109665 20.925,2.926096 75.33,10.923216 20.925,2.677613 20.925,2.440339 20.925,2.228294 33.48,3.28934 37.665,3.73305 20.925,2.30941 16.74,2.04916 16.74,2.26211 16.74,2.48674 16.74,2.70018 20.925,3.61576 50.22,8.83174 12.555,1.94757 12.555,1.70949 8.37,0.97049 8.37,0.80898 8.37,0.62539 8.37,0.42055 8.37,0.19591 8.37,-0.0465 8.37,-0.30384 8.37,-0.57252 8.37,-0.84807 8.37,-1.12501 8.37,-1.39681 8.37,-1.65575 8.37,-1.8929 8.37,-2.09789 12.555,-3.43135 25.11,-7.03084 4.185,-1.05543 0,0"
           style="fill:none;stroke:#e24a33;stroke-width:2;stroke-linecap:square;stroke-linejoin:round;stroke-miterlimit:10;stroke-opacity:1;stroke-dasharray:none"
           id="path3565"
           inkscape:connector-curvature="0" /></g></g><g
       id="g3567"><g
         id="g3569"
         clip-path="url(#clipPath3571)"><path
           d="m 135,73.287462 16.74,56.842368 8.37,27.65972 8.37,26.60013 4.185,12.80218 4.185,12.42577 4.185,12.0212 4.185,11.59238 4.185,11.14294 4.185,10.6763 4.185,10.19565 4.185,9.70396 4.185,9.20398 4.185,8.69833 4.185,8.18934 4.185,7.67925 4.185,7.17007 4.185,6.66367 4.185,6.16175 4.185,5.66587 4.185,5.17745 4.185,4.69774 4.185,4.22789 4.185,3.76894 4.185,3.32176 4.185,2.88716 4.185,2.46581 4.185,2.05832 4.185,1.66514 4.185,1.28671 4.185,0.92332 4.185,0.57523 4.185,0.24258 4.185,-0.0745 4.185,-0.37602 4.185,-0.66197 4.185,-0.93244 4.185,-1.18758 4.185,-1.42755 4.185,-1.65258 4.185,-1.86293 4.185,-2.05892 4.185,-2.24086 4.185,-2.40911 4.185,-2.56406 8.37,-5.54184 8.37,-6.01265 8.37,-6.39293 8.37,-6.69035 12.555,-10.43143 16.74,-14.3164 25.11,-21.55714 16.74,-14.03412 12.555,-10.23278 12.555,-9.94469 12.555,-9.64595 12.555,-9.35288 12.555,-9.07737 12.555,-8.82707 12.555,-8.60572 16.74,-11.17986 16.74,-10.89706 16.74,-10.65369 16.74,-10.42222 16.74,-10.17101 16.74,-9.8677 12.555,-7.15348 12.555,-6.89362 12.555,-6.58428 8.37,-4.19166 8.37,-4.01481 8.37,-3.82229 8.37,-3.61477 8.37,-3.393288 8.37,-3.159351 8.37,-2.914817 8.37,-2.66196 8.37,-2.403404 8.37,-2.142109 8.37,-1.881312 8.37,-1.624482 8.37,-1.375245 8.37,-1.13731 8.37,-0.914377 8.37,-0.710028 8.37,-0.527616 12.555,-0.504606 12.555,-0.244656 20.925,-0.103476 25.11,-0.151215 16.74,-0.336161 33.48,-0.805913 8.37,0.09873 8.37,0.435414 4.185,0.394968 4.185,0.545482 4.185,0.723782 4.185,0.93292 0,0"
           style="fill:none;stroke:#8eba42;stroke-width:2;stroke-linecap:square;stroke-linejoin:round;stroke-miterlimit:10;stroke-opacity:1;stroke-dasharray:none"
           id="path3575"
           inkscape:connector-curvature="0" /></g></g><g
       id="g3577"><g
         id="g3579"
         clip-path="url(#clipPath3581)"><path
           d="m 135,73.796628 4.185,5.968358 8.37,12.551036 12.555,19.592018 12.555,19.49755 8.37,12.50362 8.37,11.87201 4.185,5.64987 4.185,5.43781 4.185,5.21258 4.185,4.97632 4.185,4.73096 4.185,4.47834 4.185,4.22014 4.185,3.95797 4.185,3.69325 4.185,3.42736 4.185,3.16153 4.185,2.8969 4.185,2.63449 4.185,2.37529 4.185,2.12011 4.185,1.86977 4.185,1.62492 4.185,1.38621 4.185,1.15418 4.185,0.92928 4.185,0.71195 4.185,0.50253 4.185,0.3013 4.185,0.10852 4.185,-0.0756 4.185,-0.25104 4.185,-0.41759 4.185,-0.57523 4.185,-0.72395 4.185,-0.86379 4.185,-0.99479 8.37,-2.34773 8.37,-2.76848 8.37,-3.12351 8.37,-3.41615 8.37,-3.65024 12.555,-5.79675 16.74,-8.0802 29.295,-14.25829 12.555,-5.91472 12.555,-5.70855 12.555,-5.46796 12.555,-5.21017 12.555,-4.94974 12.555,-4.69853 12.555,-4.4655 12.555,-4.25691 16.74,-5.40003 16.74,-5.14763 20.925,-6.17447 25.11,-7.14546 25.11,-6.91956 20.925,-5.565611 16.74,-4.264946 16.74,-4.032334 12.555,-2.827973 12.555,-2.62363 12.555,-2.387328 12.555,-2.121692 12.555,-1.831369 12.555,-1.522984 12.555,-1.204969 12.555,-0.88732 12.555,-0.581212 12.555,-0.298512 12.555,-0.05115 12.555,0.149633 16.74,0.41368 41.85,1.164792 16.74,0.167529 16.74,-0.08748 33.48,-0.317521 8.37,0.188769 4.185,0.194402 0,0"
           style="fill:none;stroke:#348abd;stroke-width:2;stroke-linecap:square;stroke-linejoin:round;stroke-miterlimit:10;stroke-opacity:1;stroke-dasharray:none"
           id="path3585"
           inkscape:connector-curvature="0" /></g></g><g
       id="g3587"><path
         d="m 135,518.4 837,0"
         style="fill:none;stroke:#ffffff;stroke-width:1;stroke-linecap:butt;stroke-linejoin:round;stroke-miterlimit:10;stroke-opacity:1;stroke-dasharray:none"
         id="path3589"
         inkscape:connector-curvature="0" /><path
         d="m 972,72 0,446.4"
         style="fill:none;stroke:#ffffff;stroke-width:1;stroke-linecap:butt;stroke-linejoin:round;stroke-miterlimit:10;stroke-opacity:1;stroke-dasharray:none"
         id="path3591"
         inkscape:connector-curvature="0" /><path
         d="m 135,72 837,0"
         style="fill:none;stroke:#ffffff;stroke-width:1;stroke-linecap:butt;stroke-linejoin:round;stroke-miterlimit:10;stroke-opacity:1;stroke-dasharray:none"
         id="path3593"
         inkscape:connector-curvature="0" /><path
         d="m 135,72 0,446.4"
         style="fill:none;stroke:#ffffff;stroke-width:1;stroke-linecap:butt;stroke-linejoin:round;stroke-miterlimit:10;stroke-opacity:1;stroke-dasharray:none"
         id="path3595"
         inkscape:connector-curvature="0" /><path
         d="m 890.925,457.84687 75.075,0 0,54.55313 -75.075,0 0,-54.55313 z"
         style="fill:#e5e5e5;fill-opacity:1;fill-rule:nonzero;stroke:#ffffff;stroke-width:0.5;stroke-linecap:butt;stroke-linejoin:round;stroke-miterlimit:10;stroke-opacity:1;stroke-dasharray:none"
         id="path3597"
         inkscape:connector-curvature="0" /><path
         d="m 899.325,503.20625 16.8,0"
         style="fill:none;stroke:#e24a33;stroke-width:2;stroke-linecap:square;stroke-linejoin:round;stroke-miterlimit:10;stroke-opacity:1;stroke-dasharray:none"
         id="path3599"
         inkscape:connector-curvature="0" /><text
         transform="matrix(1,0,0,-1,929.325,499.00625)"
         id="text3601"><tspan
           style="font-size:12px;font-variant:normal;font-weight:normal;writing-mode:lr-tb;fill:#000000;fill-opacity:1;fill-rule:nonzero;stroke:none;font-family:ArialMT;-inkscape-font-specification:ArialMT"
           x="0 8.6639996 15.336"
           y="0"
           sodipodi:role="line"
           id="tspan3603">Red</tspan></text>
<path
         d="m 899.325,486.22187 16.8,0"
         style="fill:none;stroke:#8eba42;stroke-width:2;stroke-linecap:square;stroke-linejoin:round;stroke-miterlimit:10;stroke-opacity:1;stroke-dasharray:none"
         id="path3605"
         inkscape:connector-curvature="0" /><text
         transform="matrix(1,0,0,-1,929.325,482.02187)"
         id="text3607"><tspan
           style="font-size:12px;font-variant:normal;font-weight:normal;writing-mode:lr-tb;fill:#000000;fill-opacity:1;fill-rule:nonzero;stroke:none;font-family:ArialMT;-inkscape-font-specification:ArialMT"
           x="0 9.3360004 13.332 20.004 26.676001"
           y="0"
           sodipodi:role="line"
           id="tspan3609">Green</tspan></text>
<path
         d="m 899.325,469.2375 16.8,0"
         style="fill:none;stroke:#348abd;stroke-width:2;stroke-linecap:square;stroke-linejoin:round;stroke-miterlimit:10;stroke-opacity:1;stroke-dasharray:none"
         id="path3611"
         inkscape:connector-curvature="0" /><text
         transform="matrix(1,0,0,-1,929.325,465.0375)"
         id="text3613"><tspan
           style="font-size:12px;font-variant:normal;font-weight:normal;writing-mode:lr-tb;fill:#000000;fill-opacity:1;fill-rule:nonzero;stroke:none;font-family:ArialMT;-inkscape-font-specification:ArialMT"
           x="0 8.0039997 10.668 17.34"
           y="0"
           sodipodi:role="line"
           id="tspan3615">Blue</tspan></text>
</g><text
       xml:space="preserve"
       style="font-size:16px;font-style:normal;font-variant:normal;font-weight:normal;font-stretch:normal;line-height:125%;letter-spacing:0px;word-spacing:0px;fill:#000000;fill-opacity:1;stroke:none;font-family:TeX Gyre Pagella;-inkscape-font-specification:TeX Gyre Pagella"
       x="121.41054"
       y="-39.694664"
       id="text3617"
       sodipodi:linespacing="125%"
       transform="scale(1,-1)"><tspan
         sodipodi:role="line"
         id="tspan3619"
         x="121.41054"
         y="-39.694664"><tspan
   style="font-style:italic"
   id="tspan3621">z</tspan> = 0</tspan></text>
<text
       transform="scale(1,-1)"
       sodipodi:linespacing="125%"
       id="text3625"
       y="-34.815147"
       x="947.63843"
       style="font-size:16px;font-style:normal;font-variant:normal;font-weight:normal;font-stretch:normal;line-height:125%;letter-spacing:0px;word-spacing:0px;fill:#000000;fill-opacity:1;stroke:none;font-family:TeX Gyre Pagella;-inkscape-font-specification:TeX Gyre Pagella"
       xml:space="preserve"><tspan
         y="-34.815147"
         x="947.63843"
         id="tspan3627"
         sodipodi:role="line"><tspan
   id="tspan3629"
   style="font-style:italic">z</tspan> = 200</tspan></text>
<rect
       style="opacity:0.61515024;fill:none;stroke:#000000;stroke-width:0.95544893;stroke-miterlimit:4;stroke-dasharray:none"
       id="rect3631"
       width="15.856379"
       height="446.07162"
       x="520.41797"
       y="-517.63739"
       transform="scale(1,-1)" /><path
       style="opacity:0.20171676;fill:#ff0000;stroke:#000000;stroke-width:0.24513562;stroke-miterlimit:4"
       d="m 520.99699,98.921215 15.50734,1.365295 0.009,-29.249659 -16.3334,0 z"
       id="rect4405"
       inkscape:connector-curvature="0"
       sodipodi:nodetypes="ccccc" /><path
       style="opacity:0.20171676;fill:#0055d4;stroke:#000000;stroke-width:0.26887932;stroke-miterlimit:4"
       d="m 520.90543,136.04997 14.78192,-6.42411 0.29857,-29.36577 -14.97244,-1.472598 z"
       id="rect4407"
       inkscape:connector-curvature="0"
       sodipodi:nodetypes="ccccc" /><path
       style="opacity:0.20171676;fill:#37c837;stroke:#000000;stroke-width:0.37403375;stroke-miterlimit:4"
       d="m 520.63363,207.54805 15.61984,-10.61175 -0.19905,-67.38638 -15.51604,6.28998 z"
       id="rect4409"
       inkscape:connector-curvature="0"
       sodipodi:nodetypes="ccccc" /><g
       id="g4419"
       transform="matrix(2.0436921,0,0,1.6530444,-729.3597,-799.26074)"><rect
         transform="matrix(0,-1,-1,0,0,0)"
         y="-469.237"
         x="-469.9184"
         height="25.915699"
         width="32.926342"
         id="rect4413"
         style="opacity:0.61515024;fill:#ff0000;stroke:#000000;stroke-width:0.33186114;stroke-miterlimit:4;stroke-dasharray:none" /><rect
         style="opacity:0.61515024;fill:#0055d4;stroke:#000000;stroke-width:0.364005;stroke-miterlimit:4;stroke-dasharray:none"
         id="rect4415"
         width="32.894199"
         height="31.20966"
         x="-469.90228"
         y="-500.74353"
         transform="matrix(0,-1,-1,0,0,0)" /><rect
         transform="matrix(0,-1,-1,0,0,0)"
         y="-561.49695"
         x="-469.83112"
         height="60.656784"
         width="32.751842"
         id="rect4417"
         style="opacity:0.61515024;fill:#37c837;stroke:#000000;stroke-width:0.50636154;stroke-miterlimit:4;stroke-dasharray:none" /><text
         xml:space="preserve"
         style="font-size:14.6572752px;font-style:normal;font-variant:normal;font-weight:normal;font-stretch:normal;line-height:125%;letter-spacing:0px;word-spacing:0px;fill:#000000;fill-opacity:1;stroke:none;font-family:TeX Gyre Pagella;-inkscape-font-specification:TeX Gyre Pagella"
         x="495.87622"
         y="-404.39795"
         id="text4428"
         sodipodi:linespacing="125%"
         transform="scale(0.89936201,-1.1118993)"><tspan
           sodipodi:role="line"
           id="tspan4430"
           x="495.87622"
           y="-404.39795"><tspan
             style="font-style:italic"
             id="tspan4434">P</tspan><tspan
             style="font-size:9.52736282px;baseline-shift:sub"
             id="tspan4432">red</tspan></tspan></text>
<text
         transform="scale(0.89936201,-1.1118993)"
         sodipodi:linespacing="125%"
         id="text4436"
         y="-404.39795"
         x="527.21417"
         style="font-size:14.6572752px;font-style:normal;font-variant:normal;font-weight:normal;font-stretch:normal;line-height:125%;letter-spacing:0px;word-spacing:0px;fill:#000000;fill-opacity:1;stroke:none;font-family:TeX Gyre Pagella;-inkscape-font-specification:TeX Gyre Pagella"
         xml:space="preserve"><tspan
           y="-404.39795"
           x="527.21417"
           id="tspan4438"
           sodipodi:role="line" /></text>
<text
         transform="scale(0.89936201,-1.1118993)"
         sodipodi:linespacing="125%"
         id="text4452"
         y="-404.39795"
         x="525.47339"
         style="font-size:14.6572752px;font-style:normal;font-variant:normal;font-weight:normal;font-stretch:normal;line-height:125%;letter-spacing:0px;word-spacing:0px;fill:#000000;fill-opacity:1;stroke:none;font-family:TeX Gyre Pagella;-inkscape-font-specification:TeX Gyre Pagella"
         xml:space="preserve"><tspan
           y="-404.39795"
           x="525.47339"
           id="tspan4454"
           sodipodi:role="line"><tspan
             id="tspan4456"
             style="font-style:italic">P</tspan><tspan
             id="tspan4458"
             style="font-size:9.52736282px;baseline-shift:sub">blue</tspan></tspan></text>
<text
         xml:space="preserve"
         style="font-size:14.6572752px;font-style:normal;font-variant:normal;font-weight:normal;font-stretch:normal;line-height:125%;letter-spacing:0px;word-spacing:0px;fill:#000000;fill-opacity:1;stroke:none;font-family:TeX Gyre Pagella;-inkscape-font-specification:TeX Gyre Pagella"
         x="573.35107"
         y="-404.39795"
         id="text4460"
         sodipodi:linespacing="125%"
         transform="scale(0.89936201,-1.1118993)"><tspan
           sodipodi:role="line"
           id="tspan4462"
           x="573.35107"
           y="-404.39795"><tspan
             style="font-style:italic"
             id="tspan4464">P</tspan><tspan
             style="font-size:9.52736282px;baseline-shift:sub"
             id="tspan4466">green</tspan></tspan></text>
<text
         transform="scale(0.89936201,-1.1118993)"
         sodipodi:linespacing="125%"
         id="text4468"
         y="-404.39795"
         x="756.15643"
         style="font-size:14.6572752px;font-style:normal;font-variant:normal;font-weight:normal;font-stretch:normal;line-height:125%;letter-spacing:0px;word-spacing:0px;fill:#000000;fill-opacity:1;stroke:none;font-family:TeX Gyre Pagella;-inkscape-font-specification:TeX Gyre Pagella"
         xml:space="preserve"><tspan
           y="-404.39795"
           x="756.15643"
           id="tspan4470"
           sodipodi:role="line"><tspan
             id="tspan4472"
             style="font-style:italic">P</tspan><tspan
             id="tspan4474"
             style="font-size:9.52736282px;baseline-shift:sub">quench</tspan></tspan></text>
<rect
         style="fill:none;stroke:#000000;stroke-width:1.29428923;stroke-miterlimit:4;stroke-dasharray:none"
         id="rect4411"
         width="31.963917"
         height="406.06573"
         x="-469.43713"
         y="-849.86829"
         transform="matrix(0,-1,-1,0,0,0)" /></g><path
       style="fill:none;stroke:#999999;stroke-width:2;stroke-linecap:butt;stroke-linejoin:miter;stroke-opacity:1;marker-start:none;stroke-miterlimit:4;stroke-dasharray:2,4;stroke-dashoffset:0"
       d="M 650.06858,630.71659 218.56175,749.48042"
       id="path3574"
       inkscape:connector-curvature="0"
       transform="matrix(0.8,0,0,-0.8,0,576)"
       sodipodi:nodetypes="cc" /><path
       style="fill:none;stroke:#999999;stroke-width:2;stroke-linecap:butt;stroke-linejoin:miter;stroke-opacity:1;marker-start:none;stroke-miterlimit:4;stroke-dasharray:2,4;stroke-dashoffset:0"
       d="m 670.99539,630.71659 586.49711,116.7307"
       id="path3576"
       inkscape:connector-curvature="0"
       transform="matrix(0.8,0,0,-0.8,0,576)"
       sodipodi:nodetypes="cc" /></g></svg>